<?xml version="1.0" standalone="no"?>
<!DOCTYPE svg PUBLIC "-//W3C//DTD SVG 20010904//EN"
 "http://www.w3.org/TR/2001/REC-SVG-20010904/DTD/svg10.dtd">
<svg version="1.0" xmlns="http://www.w3.org/2000/svg"
 width="300.000000pt" height="300.000000pt" viewBox="0 0 300.000000 300.000000"
 preserveAspectRatio="xMidYMid meet">
<metadata>
Created by potrace 1.14, written by Peter Selinger 2001-2017
</metadata>
<g transform="translate(0.000000,300.000000) scale(0.100000,-0.100000)"
fill="#000000" stroke="none">
<path d="M237 2986 c-63 -17 -123 -60 -169 -121 -73 -96 -69 -3 -66 -1380 l3
-1240 23 -47 c35 -70 96 -134 160 -165 l57 -28 1255 0 1255 0 57 28 c64 31
125 95 160 165 l23 47 0 1255 0 1255 -23 47 c-35 70 -96 134 -160 165 l-57 28
-1235 2 c-990 1 -1245 -1 -1283 -11z m528 -480 c63 -27 114 -135 118 -250 l2
-46 100 6 c128 8 972 -12 1090 -26 393 -46 612 -221 709 -568 23 -79 26 -110
26 -241 0 -129 -4 -165 -25 -248 -67 -258 -190 -434 -384 -551 -53 -32 -115
-66 -139 -75 -60 -24 -181 -23 -230 2 -71 37 -112 97 -112 166 0 51 15 81 71
141 44 46 49 54 31 54 -37 0 -99 30 -112 55 -16 30 -16 85 0 167 11 57 11 70
-5 117 -34 103 -124 161 -251 161 -55 0 -83 -10 -95 -33 0 -1 -4 -65 -8 -142
-8 -155 -21 -193 -83 -251 -71 -68 -142 -84 -270 -63 l-83 13 98 8 c121 9 159
21 208 65 56 51 70 102 67 253 -3 114 -1 128 20 161 30 49 70 64 163 62 89 -3
174 -31 223 -74 44 -38 96 -138 102 -196 3 -26 -1 -77 -8 -113 -8 -36 -12 -73
-10 -82 4 -20 38 -28 110 -26 49 1 56 5 88 42 140 163 169 358 87 574 -4 9 -2
13 4 9 6 -4 21 -34 33 -67 24 -63 28 -68 48 -48 14 14 306 18 358 5 l31 -8 -9
63 c-33 227 -166 418 -353 508 -153 74 -323 93 -965 105 -303 6 -439 14 -502
30 -26 7 -27 5 -33 -52 -13 -114 -23 -113 -24 4 -1 128 -13 198 -47 265 -61
121 -134 102 -233 -59 -31 -51 -96 -144 -146 -207 -49 -63 -105 -141 -122
-173 -38 -68 -41 -112 -17 -242 12 -61 15 -114 11 -181 -3 -53 -2 -102 3 -110
5 -8 38 -22 72 -30 104 -25 83 -70 -33 -70 -42 0 -55 5 -87 34 l-37 35 3 117
c1 73 -3 146 -13 196 -38 202 -16 259 193 507 30 35 79 103 110 150 69 109 88
129 137 152 49 23 75 23 120 5z m-172 -789 c50 -21 147 -116 147 -144 0 -17 3
-16 105 12 100 28 189 3 253 -70 65 -73 92 -167 92 -315 0 -121 -18 -165 -84
-206 -34 -21 -49 -37 -53 -59 -5 -25 -7 -26 -13 -10 -11 29 4 60 49 101 50 45
57 75 42 198 -18 157 -59 239 -138 277 -78 38 -141 19 -353 -106 -97 -57 -132
-65 -138 -32 -5 26 29 60 110 107 l68 41 -19 37 c-35 68 -99 115 -203 151 -56
19 -64 33 -23 42 42 9 102 0 158 -24z"/>
<path d="M2710 1440 c-21 -11 -329 -53 -352 -47 -16 5 -18 -3 -18 -73 l0 -77
77 -13 c78 -12 204 -50 257 -77 15 -8 32 -11 36 -6 21 20 41 303 23 303 -5 0
-15 -5 -23 -10z"/>
<path d="M2297 1117 c-30 -69 -32 -77 -16 -77 19 0 157 -109 204 -162 72 -81
57 -90 -48 -29 -36 22 -98 61 -137 87 l-71 47 -62 -66 -62 -66 28 -33 c82 -95
148 -218 119 -218 -18 0 -100 72 -154 135 l-57 65 -30 -37 c-67 -81 -42 -164
62 -208 48 -20 86 -19 153 5 200 70 376 255 456 481 l27 79 -60 0 c-33 0 -92
6 -132 14 -40 8 -94 17 -122 21 -27 4 -55 11 -60 15 -7 6 -21 -13 -38 -53z"/>
</g>
</svg>
